<?xml version="1.0" encoding="UTF-8"?>
<svg width="22px" height="19px" viewBox="0 0 22 19" version="1.1" xmlns="http://www.w3.org/2000/svg" xmlns:xlink="http://www.w3.org/1999/xlink">
    <!-- Generator: Sketch 47.1 (45422) - http://www.bohemiancoding.com/sketch -->
    <title>alert</title>
    <desc>Created with Sketch.</desc>
    <defs></defs>
    <g id="Page-1" stroke="none" stroke-width="1" fill="none" fill-rule="evenodd">
        <g id="Artboard-2" transform="translate(-477.000000, -445.000000)" fill="#595959">
            <path d="M489.714986,446.85831 L498.182605,460.971008 L498.182605,460.971008 C498.750901,461.918169 498.443771,463.14669 497.496611,463.714986 C497.18578,463.901484 496.830107,464 496.467619,464 L479.532381,464 C478.427811,464 477.532381,463.104569 477.532381,462 C477.532381,461.637512 477.630896,461.281839 477.817395,460.971008 L486.285014,446.85831 L486.285014,446.85831 C486.85331,445.911149 488.081831,445.604019 489.028992,446.172315 C489.310491,446.341215 489.546086,446.576811 489.714986,446.85831 L489.714986,446.85831 Z M487.00037,452 C486.939897,452 486.879548,452.005485 486.820067,452.016389 C486.276833,452.115968 485.91718,452.63707 486.016758,453.180303 L486.701939,456.918182 C486.816812,457.544854 487.362974,458 488.000087,458 C488.637201,458 489.183362,457.544854 489.298236,456.918182 L489.298236,456.918182 L489.983416,453.180303 C489.99432,453.120821 489.999805,453.060473 489.999805,453 C489.999805,452.447715 489.55209,452 488.999805,452 L487.00037,452 Z M488,462 C488.828427,462 489.5,461.328427 489.5,460.5 C489.5,459.671573 488.828427,459 488,459 C487.171573,459 486.5,459.671573 486.5,460.5 C486.5,461.328427 487.171573,462 488,462 Z" id="alert"></path>
        </g>
    </g>
</svg>