<?xml version="1.0" encoding="UTF-8"?>
<svg width="26px" height="20px" viewBox="0 0 26 20" version="1.1" xmlns="http://www.w3.org/2000/svg" xmlns:xlink="http://www.w3.org/1999/xlink">
    <!-- Generator: Sketch 47.1 (45422) - http://www.bohemiancoding.com/sketch -->
    <title>channels</title>
    <desc>Created with Sketch.</desc>
    <defs></defs>
    <g id="Page-1" stroke="none" stroke-width="1" fill="none" fill-rule="evenodd">
        <g id="Artboard-2" transform="translate(-1284.000000, -181.000000)" fill="#595959">
            <g id="channels" transform="translate(1284.000000, 181.000000)">
                <g id="Group-15">
                    <path d="M18.759621,15.6585759 C21.8838153,12.5343816 21.8838153,7.46906173 18.759621,4.3448674 C18.7297703,4.31511949 18.7297703,4.31511949 18.6997575,4.28561954 C18.3052159,3.89915433 17.6720847,3.90570156 17.2856195,4.30024318 C16.8991543,4.6947848 16.9057016,5.32791592 17.3002432,5.71438113 C17.3228815,5.73663261 17.3228815,5.73663261 17.3454074,5.75908096 C19.6885532,8.10222671 19.6885532,11.9012166 17.3454074,14.2443623 C16.9548831,14.6348866 16.9548831,15.2680516 17.3454074,15.6585759 C17.7359317,16.0491002 18.3690967,16.0491002 18.759621,15.6585759 Z" id="Oval-17" fill-rule="nonzero"></path>
                    <path d="M8.75735931,14.2443623 C6.41421356,11.9012166 6.41421356,8.10222671 8.75735931,5.75908096 C8.77988521,5.73663261 8.77988521,5.73663261 8.80252357,5.71438113 C9.19706518,5.32791592 9.20361241,4.6947848 8.8171472,4.30024318 C8.43068199,3.90570156 7.79755087,3.89915433 7.40300925,4.28561954 C7.37299642,4.31511949 7.37299642,4.31511949 7.34314575,4.3448674 C4.21895142,7.46906173 4.21895142,12.5343816 7.34314575,15.6585759 C7.73367004,16.0491002 8.36683502,16.0491002 8.75735931,15.6585759 C9.1478836,15.2680516 9.1478836,14.6348866 8.75735931,14.2443623 Z" id="Oval-17-Copy" fill-rule="nonzero"></path>
                    <path d="M5.22182541,17.4517887 C0.926058198,13.1560215 0.926058198,6.19120675 5.22182541,1.89543954 C5.2801955,1.83706944 5.33912588,1.77942246 5.39860831,1.72250311 C5.79763492,1.34067042 5.81157334,0.707658878 5.42974065,0.308632265 C5.04790795,-0.0903943471 4.41489641,-0.10433277 4.0158698,0.277499925 C3.94578338,0.344566348 3.87636067,0.41247715 3.80761184,0.481225975 C-1.26920395,5.55804177 -1.26920395,13.7891865 3.80761184,18.8660023 C4.19813614,19.2565266 4.83130112,19.2565266 5.22182541,18.8660023 C5.6123497,18.475478 5.6123497,17.842313 5.22182541,17.4517887 Z" id="Oval-17-Copy-2" fill-rule="nonzero"></path>
                    <path d="M21.8996287,18.8660023 C26.9764445,13.7891865 26.9764445,5.55804177 21.8996287,0.481225975 C21.8308799,0.41247715 21.7614572,0.344566348 21.6913708,0.277499925 C21.2923442,-0.10433277 20.6593326,-0.0903943471 20.2774999,0.308632265 C19.8956672,0.707658878 19.9096057,1.34067042 20.3086323,1.72250311 C20.3681147,1.77942246 20.4270451,1.83706944 20.4854152,1.89543954 C24.7811824,6.19120675 24.7811824,13.1560215 20.4854152,17.4517887 C20.0948909,17.842313 20.0948909,18.475478 20.4854152,18.8660023 C20.8759395,19.2565266 21.5091044,19.2565266 21.8996287,18.8660023 Z" id="Oval-17-Copy-3" fill-rule="nonzero"></path>
                    <circle id="Oval-16" cx="13" cy="10" r="3"></circle>
                </g>
            </g>
        </g>
    </g>
</svg>