<?xml version="1.0" encoding="UTF-8"?>
<svg width="26px" height="29px" viewBox="0 0 26 29" version="1.1" xmlns="http://www.w3.org/2000/svg" xmlns:xlink="http://www.w3.org/1999/xlink">
    <!-- Generator: Sketch 45.1 (43504) - http://www.bohemiancoding.com/sketch -->
    <title>Group 35</title>
    <desc>Created with Sketch.</desc>
    <defs></defs>
    <g id="Page-1" stroke="none" stroke-width="1" fill="none" fill-rule="evenodd">
        <g id="Group-35" transform="translate(1.000000, 1.000000)">
            <g id="box" stroke="#0F0F0F" stroke-width="2" stroke-linecap="round" stroke-linejoin="round">
                <path d="M13.068,0.54 L22.668,5.34 C23.4835892,5.74527601 23.9995167,6.57726723 24,7.488 L24,18.924 C23.9995167,19.8347328 23.4835892,20.666724 22.668,21.072 L13.068,25.872 C12.3919585,26.2102914 11.5960415,26.2102914 10.92,25.872 L1.32,21.072 C0.505190887,20.6614427 -0.00634960339,19.8243765 1.33224052e-15,18.912 L1.33224052e-15,7.488 C0.000483270351,6.57726723 0.516410786,5.74527601 1.332,5.34 L10.932,0.54 C11.6047591,0.205697821 12.3952409,0.205697821 13.068,0.54 Z" id="Shape"></path>
                <polyline id="Shape" points="0.384 6.192 12 12 23.616 6.192"></polyline>
                <path d="M12,26.112 L12,12" id="Shape"></path>
            </g>
            <path d="M3.60016877,16.8 C2.93834326,16.8 2.4,17.3383611 2.4,18.0000703 C2.4,18.6618076 2.93834326,19.2 3.60016877,19.2 C4.26174113,19.2 4.8,18.6618076 4.8,18.0000703 C4.8,17.3383611 4.261713,16.8 3.60016877,16.8 Z" id="Shape" fill="#000000"></path>
            <path d="M3.60016877,12 C2.93834326,12 2.4,12.5383611 2.4,13.2000703 C2.4,13.8618076 2.93834326,14.4 3.60016877,14.4 C4.26174113,14.4 4.8,13.8618076 4.8,13.2000703 C4.8,12.5383611 4.261713,12 3.60016877,12 Z" id="Shape" fill="#000000"></path>
            <path d="M8.40016877,19.2 C7.73834326,19.2 7.2,19.7383611 7.2,20.4000703 C7.2,21.0618076 7.73834326,21.6 8.40016877,21.6 C9.06174113,21.6 9.6,21.0618076 9.6,20.4000703 C9.6,19.7383611 9.061713,19.2 8.40016877,19.2 Z" id="Shape" fill="#000000"></path>
            <path d="M8.40016877,14.4 C7.73834326,14.4 7.2,14.9383611 7.2,15.6000703 C7.2,16.2618076 7.73834326,16.8 8.40016877,16.8 C9.06174113,16.8 9.6,16.2618076 9.6,15.6000703 C9.6,14.9383611 9.061713,14.4 8.40016877,14.4 Z" id="Shape" fill="#000000"></path>
            <path d="M18.0001688,15.6 C17.3383433,15.6 16.8,16.1383611 16.8,16.8000703 C16.8,17.4618076 17.3383433,18 18.0001688,18 C18.6617411,18 19.2,17.4618076 19.2,16.8000703 C19.2,16.1383611 18.661713,15.6 18.0001688,15.6 Z" id="Shape" fill="#000000"></path>
            <g id="Group-34" transform="translate(6.000000, 4.800000)" fill="#000000">
                <path d="M1.20016877,0 C0.538343256,0 0,0.538361124 0,1.20007031 C0,1.86180761 0.538343256,2.4 1.20016877,2.4 C1.86174113,2.4 2.4,1.86180761 2.4,1.20007031 C2.4,0.538361124 1.861713,0 1.20016877,0 Z" id="Shape"></path>
            </g>
            <path d="M12.0001688,4.8 C11.3383433,4.8 10.8,5.33836112 10.8,6.00007031 C10.8,6.66180761 11.3383433,7.2 12.0001688,7.2 C12.6617411,7.2 13.2,6.66180761 13.2,6.00007031 C13.2,5.33836112 12.661713,4.8 12.0001688,4.8 Z" id="Shape" fill="#000000"></path>
            <path d="M16.8001688,4.8 C16.1383433,4.8 15.6,5.33836112 15.6,6.00007031 C15.6,6.66180761 16.1383433,7.2 16.8001688,7.2 C17.4617411,7.2 18,6.66180761 18,6.00007031 C18,5.33836112 17.461713,4.8 16.8001688,4.8 Z" id="Shape" fill="#000000"></path>
        </g>
    </g>
</svg>