<?xml version="1.0" encoding="UTF-8"?>
<svg width="26px" height="16px" viewBox="0 0 26 16" version="1.1" xmlns="http://www.w3.org/2000/svg" xmlns:xlink="http://www.w3.org/1999/xlink">
    <!-- Generator: Sketch 47.1 (45422) - http://www.bohemiancoding.com/sketch -->
    <title>eye</title>
    <desc>Created with Sketch.</desc>
    <defs></defs>
    <g id="Page-1" stroke="none" stroke-width="1" fill="none" fill-rule="evenodd">
        <g id="Artboard-2" transform="translate(-1058.000000, -324.000000)" fill="#595959">
            <path d="M1071,340 C1067.18665,340 1063.43657,338.013555 1059.74977,334.040666 C1058.6818,332.889823 1058.6818,331.110195 1059.74977,329.959351 L1059.74977,329.959343 C1063.43657,325.986448 1067.18664,324 1071,324 C1074.81335,324 1078.56343,325.986445 1082.25023,329.959334 C1083.3182,331.110177 1083.3182,332.889805 1082.25023,334.040649 L1082.25023,334.040657 C1078.56343,338.013552 1074.81336,340 1071,340 Z M1071,337 C1073.76142,337 1076,334.761424 1076,332 C1076,329.238576 1073.76142,327 1071,327 C1068.23858,327 1066,329.238576 1066,332 C1066,334.761424 1068.23858,337 1071,337 Z M1071,335 C1069.34315,335 1068,333.656854 1068,332 C1068,330.343146 1069.34315,329 1071,329 C1072.65685,329 1074,330.343146 1074,332 C1074,333.656854 1072.65685,335 1071,335 Z" id="eye"></path>
        </g>
    </g>
</svg>