<?xml version="1.0" encoding="UTF-8"?>
<svg width="29px" height="14px" viewBox="0 0 29 14" version="1.1" xmlns="http://www.w3.org/2000/svg" xmlns:xlink="http://www.w3.org/1999/xlink">
    <!-- Generator: Sketch 45.1 (43504) - http://www.bohemiancoding.com/sketch -->
    <title>link-2</title>
    <desc>Created with Sketch.</desc>
    <defs></defs>
    <g id="Page-1" stroke="none" stroke-width="1" fill="none" fill-rule="evenodd" stroke-linecap="round" stroke-linejoin="round">
        <g id="link-2" transform="translate(1.000000, 1.000000)" stroke="#0F0F0F" stroke-width="2">
            <path d="M17.1818182,0 L20.8636364,0 C22.4911012,2.13162821e-15 24.0519093,0.632141042 25.2027007,1.75735931 C26.3534921,2.88257758 27,4.40870106 27,6 C27,9.3137085 24.2526564,12 20.8636364,12 L17.1818182,12 M9.81818182,12 L6.13636364,12 C4.50889881,12 2.94809071,11.367859 1.7972993,10.2426407 C0.646507884,9.11742242 1.36254644e-16,7.59129894 0,6 C-2.72509288e-16,2.6862915 2.74734358,1.77635684e-15 6.13636364,1.77635684e-15 L9.81818182,1.77635684e-15" id="Shape"></path>
            <path d="M8.59090909,6 L18.4090909,6" id="Shape"></path>
        </g>
    </g>
</svg>