<?xml version="1.0" encoding="UTF-8"?>
<svg width="20px" height="20px" viewBox="0 0 20 20" version="1.1" xmlns="http://www.w3.org/2000/svg" xmlns:xlink="http://www.w3.org/1999/xlink">
    <!-- Generator: Sketch 47.1 (45422) - http://www.bohemiancoding.com/sketch -->
    <title>megaphone</title>
    <desc>Created with Sketch.</desc>
    <defs></defs>
    <g id="Page-1" stroke="none" stroke-width="1" fill="none" fill-rule="evenodd">
        <g id="Artboard-2" transform="translate(-488.000000, -322.000000)" fill-rule="nonzero" fill="#595959">
            <path d="M502.232207,336.879781 C501.943236,338.965551 500.154541,340.571429 497.991108,340.571429 C495.626278,340.571429 493.709204,338.652649 493.709204,336.285714 L493.709204,334.423154 L490.854602,333.600358 L490.854602,334.857143 C490.854602,335.646121 490.215578,336.285714 489.427301,336.285714 C488.639024,336.285714 488,335.646121 488,334.857143 L488,329.142857 C488,328.353879 488.639024,327.714286 489.427301,327.714286 C490.215578,327.714286 490.854602,328.353879 490.854602,329.142857 L490.854602,330.398264 L502.384325,327.076226 C504.00879,326.608171 505.127613,325.120511 505.127613,323.428571 C505.127613,322.639593 505.766638,322 506.554914,322 C507.343191,322 507.982216,322.639593 507.982216,323.428571 L508,327.729736 L507.982216,336.322253 L507.982216,340.571429 C507.982216,341.360407 507.343191,342 506.554914,342 C505.766638,342 505.127613,341.360407 505.127613,340.571429 C505.127504,338.879486 504.008729,337.391837 502.384308,336.923622 L502.232207,336.879781 Z M496.563807,335.24595 L496.563807,336.285714 C496.563807,337.074692 497.202831,337.714286 497.991108,337.714286 C498.779384,337.714286 499.418409,337.074692 499.418409,336.285714 L499.418409,336.068747 L496.563807,335.24595 Z" id="megaphone"></path>
        </g>
    </g>
</svg>