<?xml version="1.0" encoding="UTF-8"?>
<svg width="35px" height="24px" viewBox="0 0 35 24" version="1.1" xmlns="http://www.w3.org/2000/svg" xmlns:xlink="http://www.w3.org/1999/xlink">
    <!-- Generator: Sketch 45.1 (43504) - http://www.bohemiancoding.com/sketch -->
    <title>Group 37</title>
    <desc>Created with Sketch.</desc>
    <defs></defs>
    <g id="Page-1" stroke="none" stroke-width="1" fill="none" fill-rule="evenodd">
        <g id="Group-37" transform="translate(0.000000, 1.000000)" stroke-width="2" stroke="#000000">
            <g id="Group-38">
                <g id="Group">
                    <path d="M20.0445126,1.01432678 L20.0441121,1.0140705 C20.0171937,0.996833881 19.9888042,0.995508674 19.9619292,1.00943941 L11.0917471,5.59998202 L4.44421065,5.59998202 C2.55392427,5.59998202 1,7.20837191 1,9.19996391 C1,11.1915559 2.55392427,12.7999458 4.44421065,12.7999458 L5.44421065,12.7999458 L5.44421065,19.5499232 C5.44421065,20.9078677 6.49927228,21.9999096 7.77736865,21.9999096 C9.05546502,21.9999096 10.1105266,20.9078677 10.1105266,19.5499232 L10.1105266,12.2920895 L11.5701724,13.0475429 L19.9607877,17.3901854 C19.9876873,17.4040841 20.0171671,17.402708 20.0446057,17.3851865 C20.0823439,17.3610879 20.1100006,17.3097666 20.1100006,17.2499322 L20.1100006,1.1499956 C20.1100006,1.09005393 20.0822063,1.03843783 20.0445126,1.01432678 Z" id="Shape"></path>
                </g>
                <g id="radio" transform="translate(26.000000, 0.000000)" stroke-linecap="round" stroke-linejoin="round">
                    <path d="M0.2016,3.753 C1.57049464,5.14569431 2.33965973,7.03552383 2.33965973,9.0061875 C2.33965973,10.9768512 1.57049464,12.8666807 0.2016,14.259375 M3.64005,0.250875 C8.38319055,5.08331066 8.38319055,12.9166893 3.64005,17.749125" id="Shape"></path>
                </g>
            </g>
        </g>
    </g>
</svg>