<?xml version="1.0" encoding="UTF-8"?>
<svg width="32px" height="26px" viewBox="0 0 32 26" version="1.1" xmlns="http://www.w3.org/2000/svg" xmlns:xlink="http://www.w3.org/1999/xlink">
    <!-- Generator: Sketch 44.1 (41455) - http://www.bohemiancoding.com/sketch -->
    <title>Group Copy</title>
    <desc>Created with Sketch.</desc>
    <defs>
        <path d="M10.5162617,5.669552 C10.8652339,5.32071479 11.3279901,5.12820513 11.8201881,5.12820513 C12.3151571,5.12820513 12.7777401,5.32071479 13.1267123,5.669552 C13.8466515,6.38921269 13.8466515,7.56037086 13.1267123,8.28003155 C12.7777401,8.62886876 12.3151571,8.82051282 11.8201881,8.82051282 C11.3278169,8.82051282 10.8650607,8.62886876 10.5162617,8.28003155 C9.79372473,7.56037086 9.79372473,6.38921269 10.5162617,5.669552 Z" id="path-1"></path>
        <path d="M23.1541058,10.1538462 C22.1359127,10.1538462 21.3076923,10.982094 21.3076923,12.0001082 C21.3076923,13.0181656 22.1359127,13.8461538 23.1541058,13.8461538 C24.1719094,13.8461538 25,13.0181656 25,12.0001082 C25,10.982094 24.1718662,10.1538462 23.1541058,10.1538462 Z" id="path-2"></path>
        <path d="M28.6925673,10.1538462 C27.6743742,10.1538462 26.8461538,10.982094 26.8461538,12.0001082 C26.8461538,13.0181656 27.6743742,13.8461538 28.6925673,13.8461538 C29.710371,13.8461538 30.5384615,13.0181656 30.5384615,12.0001082 C30.5384615,10.982094 29.7103277,10.1538462 28.6925673,10.1538462 Z" id="path-3"></path>
    </defs>
    <g id="Page-1" stroke="none" stroke-width="1" fill="none" fill-rule="evenodd">
        <g id="Group-Copy" transform="translate(1.000000, 1.000000)">
            <path d="M22.5905973,6.79927578 L22.2272859,6.14445675 C21.6962602,5.18420081 21.0335386,4.29981191 20.2578253,3.51526657 C18.0164896,1.24769288 15.0363628,0 11.8671055,0 C8.69687479,0 5.71681754,1.24769288 3.47534278,3.51526657 C1.23428522,5.78080121 0,8.79417814 0,12 C0,15.2054703 1.23421569,18.2179332 3.47534278,20.4857881 C5.71674801,22.7523774 8.69680525,24 11.8671055,24 C15.0363628,24 18.0164896,22.7523774 20.2578253,20.4843819 C21.0335386,19.6999771 21.6963298,18.8155883 22.2272859,17.8558948 L22.5905973,17.2011461 L13.3869639,12 L22.5905973,6.79927578 Z" id="Shape" stroke="#000000" stroke-width="2"></path>
            <g id="Shape">
                <use fill="#000000" fill-rule="evenodd" xlink:href="#path-1"></use>
                <path stroke="#000000" stroke-width="2" d="M11.2232317,6.37679556 L11.2219568,6.37806762 C10.8918264,6.70688392 10.8918264,7.24269963 11.2234072,7.57296348 C11.3845947,7.73416867 11.5929507,7.82051282 11.8201881,7.82051282 C12.0498351,7.82051282 12.2581736,7.73429425 12.4197423,7.57278799 C12.7489748,7.24368287 12.7489748,6.70590068 12.4197423,6.37679556 C12.2576079,6.2147239 12.0490372,6.12820513 11.8201881,6.12820513 C11.5938807,6.12820513 11.3852027,6.21488724 11.2232317,6.37679556 Z"></path>
            </g>
            <g id="Shape">
                <use fill="#000000" fill-rule="evenodd" xlink:href="#path-2"></use>
                <path stroke="#000000" stroke-width="2" d="M23.1541058,11.1538462 C22.68822,11.1538462 22.3076923,11.5343562 22.3076923,12.0001082 C22.3076923,12.4658074 22.6881241,12.8461538 23.1541058,12.8461538 C23.6196793,12.8461538 24,12.4658262 24,12.0001082 C24,11.5343561 23.6195587,11.1538462 23.1541058,11.1538462 Z"></path>
            </g>
            <g id="Shape">
                <use fill="#000000" fill-rule="evenodd" xlink:href="#path-3"></use>
                <path stroke="#000000" stroke-width="2" d="M28.6925673,11.1538462 C28.2266816,11.1538462 27.8461538,11.5343562 27.8461538,12.0001082 C27.8461538,12.4658074 28.2265856,12.8461538 28.6925673,12.8461538 C29.1581409,12.8461538 29.5384615,12.4658262 29.5384615,12.0001082 C29.5384615,11.5343561 29.1580202,11.1538462 28.6925673,11.1538462 Z"></path>
            </g>
        </g>
    </g>
</svg>