<?xml version="1.0" encoding="UTF-8"?>
<svg width="27px" height="25px" viewBox="0 0 27 25" version="1.1" xmlns="http://www.w3.org/2000/svg" xmlns:xlink="http://www.w3.org/1999/xlink">
    <!-- Generator: Sketch 44.1 (41455) - http://www.bohemiancoding.com/sketch -->
    <title>Group 2 Copy</title>
    <desc>Created with Sketch.</desc>
    <defs></defs>
    <g id="Page-1" stroke="none" stroke-width="1" fill="none" fill-rule="evenodd">
        <g id="List---Paw-in-Feathericon-Style" transform="translate(-107.000000, -619.000000)" stroke="#000000" stroke-width="2">
            <g id="Group-2-Copy" transform="translate(108.000000, 620.000000)">
                <path d="M2.49999996,12 C3.87844438,12 4.99999992,10.43004 4.99999992,8.5 C4.99999992,6.56996 3.87844438,5 2.49999996,5 C1.12155554,5 5.30242517e-13,6.56996 5.30242517e-13,8.5 C5.30242517e-13,10.43004 1.12155554,12 2.49999996,12 Z" id="Shape"></path>
                <path d="M22.4999996,11.9999999 C23.8784441,11.9999999 24.9999996,10.4300399 24.9999996,8.49999992 C24.9999996,6.56995992 23.8784441,4.99999992 22.4999996,4.99999992 C21.1215552,4.99999992 19.9999997,6.56995992 19.9999997,8.49999992 C19.9999997,10.4300399 21.1215552,11.9999999 22.4999996,11.9999999 Z" id="Shape-Copy-6"></path>
                <path d="M16.2499997,6 C17.6284442,6 18.7499997,4.65432 18.7499997,3 C18.7499997,1.34568 17.6284442,0 16.2499997,0 C14.8715553,0 13.7499998,1.34568 13.7499998,3 C13.7499998,4.65432 14.8715553,6 16.2499997,6 Z" id="Shape-Copy-7"></path>
                <path d="M8.74999986,6 C10.1284443,6 11.2499998,4.65432 11.2499998,3 C11.2499998,1.34568 10.1284443,0 8.74999986,0 C7.37155544,0 6.2499999,1.34568 6.2499999,3 C6.2499999,4.65432 7.37155544,6 8.74999986,6 Z" id="Shape-Copy-8"></path>
                <path d="M9.24393333,23 L15.7560667,23 C18.6523,23 21,21.01136 21,18.55808 C21,17.54936 20.5948333,16.57088 19.8508,15.7832 L16.9078167,12.66704 C15.91275,11.61344 14.4059833,11 12.8130833,11 L12.1872,11 C10.5943,11 9.08753333,11.61344 8.09246667,12.66704 L5.1492,15.7832 C4.40516667,16.57088 4,17.5496 4,18.55808 C4,21.01136 6.3477,23 9.24393333,23 Z" id="Shape"></path>
            </g>
        </g>
    </g>
</svg>