<?xml version="1.0" encoding="UTF-8"?>
<svg width="20px" height="20px" viewBox="0 0 20 20" version="1.1" xmlns="http://www.w3.org/2000/svg" xmlns:xlink="http://www.w3.org/1999/xlink">
    <!-- Generator: Sketch 47.1 (45422) - http://www.bohemiancoding.com/sketch -->
    <title>pencil</title>
    <desc>Created with Sketch.</desc>
    <defs></defs>
    <g id="Page-1" stroke="none" stroke-width="1" fill="none" fill-rule="evenodd">
        <g id="Artboard-2" transform="translate(-1201.000000, -322.000000)" fill="#595959">
            <path d="M1203.08306,336.113266 L1214.20701,324.989464 L1218.0105,328.792902 L1206.88655,339.916708 L1206.88655,339.916708 C1206.69746,340.105794 1206.47237,340.255041 1206.2246,340.355622 L1202.39037,341.912069 C1201.87864,342.119798 1201.29541,341.873357 1201.08768,341.361627 C1200.98977,341.120431 1200.98977,340.850561 1201.08768,340.609365 L1202.64414,336.775219 L1202.64414,336.775219 C1202.74472,336.527443 1202.89397,336.302355 1203.08306,336.113266 L1203.08306,336.113266 Z M1215.47484,323.721651 L1216.59627,322.600229 L1216.59629,322.600248 C1217.37734,321.819211 1218.64366,321.819211 1219.4247,322.600248 L1220.39976,323.575259 L1220.39978,323.575241 C1221.18084,324.356284 1221.18084,325.622614 1220.3998,326.403668 C1220.39979,326.403674 1220.39979,326.40368 1220.39978,326.403686 L1219.27833,327.525089 L1215.47484,323.721651 Z" id="pencil"></path>
        </g>
    </g>
</svg>