<?xml version="1.0" encoding="UTF-8"?>
<svg width="25px" height="25px" viewBox="0 0 25 25" version="1.1" xmlns="http://www.w3.org/2000/svg" xmlns:xlink="http://www.w3.org/1999/xlink">
    <!-- Generator: Sketch 45.1 (43504) - http://www.bohemiancoding.com/sketch -->
    <title>phone-call</title>
    <desc>Created with Sketch.</desc>
    <defs></defs>
    <g id="Page-1" stroke="none" stroke-width="1" fill="none" fill-rule="evenodd" stroke-linecap="round" stroke-linejoin="round">
        <g id="phone-call" transform="translate(1.000000, 1.000000)" stroke="#000000" stroke-width="2">
            <path d="M14.2928571,4.38095238 C16.4811313,4.80789443 18.1921056,6.51886867 18.6190476,8.70714286 M14.2928571,0 C18.8704577,0.508534645 22.4857041,4.11923366 23,8.69619048 M21.9047619,20.7219048 C21.9072654,21.3386827 21.649624,21.9279353 21.1951329,22.3448996 C20.7406418,22.7618639 20.1314224,22.9678965 19.5171429,22.912381 C16.1469133,22.546178 12.9095705,21.3945393 10.0652381,19.55 C7.41895461,17.8684414 5.17536816,15.6248549 3.49380952,12.9785714 C1.64283311,10.1213186 0.490932812,6.86823214 0.131428571,3.48285714 C0.0760897065,2.87047922 0.280678866,2.26303837 0.695219663,1.8089183 C1.10976046,1.35479823 1.69607941,1.09581714 2.31095238,1.0952381 L5.59666667,1.0952381 C6.69613682,1.08441697 7.63326283,1.89034534 7.78714286,2.97904762 C7.92582521,4.03054897 8.18301607,5.06298659 8.55380952,6.05666667 C8.85470977,6.85714884 8.6622546,7.75954972 8.06095238,8.36761905 L6.67,9.75857143 C8.22913218,12.5005502 10.4994498,14.7708678 13.2414286,16.33 L14.632381,14.9390476 C15.2404503,14.3377454 16.1428512,14.1452902 16.9433333,14.4461905 C17.9370134,14.8169839 18.969451,15.0741748 20.0209524,15.2128571 C21.1222829,15.368228 21.932351,16.3242966 21.9047619,17.4361905 L21.9047619,20.7219048 Z" id="Shape"></path>
        </g>
    </g>
</svg>