<?xml version="1.0" encoding="UTF-8"?>
<svg width="24px" height="24px" viewBox="0 0 24 24" version="1.1" xmlns="http://www.w3.org/2000/svg" xmlns:xlink="http://www.w3.org/1999/xlink">
    <!-- Generator: Sketch 47.1 (45422) - http://www.bohemiancoding.com/sketch -->
    <title>radar</title>
    <desc>Created with Sketch.</desc>
    <defs></defs>
    <g id="Page-1" stroke="none" stroke-width="1" fill="none" fill-rule="evenodd">
        <g id="Artboard-2" transform="translate(-374.000000, -175.000000)" fill-rule="nonzero" fill="#595959">
            <path d="M385.995175,175.010337 C386.547238,175.010337 386.994773,175.45786 386.994773,176.009906 C386.994773,176.561953 386.547238,177.009476 385.995175,177.009476 C380.474548,177.009476 375.999196,181.4847 375.999196,187.005169 C375.999196,192.525637 380.474548,197.000861 385.995175,197.000861 C391.515802,197.000861 395.991155,192.525637 395.991155,187.005169 C395.991155,186.453122 396.43869,186.005599 396.990753,186.005599 C397.542815,186.005599 397.990351,186.453122 397.990351,187.005169 C397.990351,193.629731 392.619928,199 385.995175,199 C379.370423,199 374,193.629731 374,187.005169 C374,180.380606 379.370423,175.010337 385.995175,175.010337 Z M387.935139,186.520192 L387.935139,186.520192 C387.973832,186.675464 387.994371,186.837918 387.994371,187.005169 C387.994371,188.109262 387.099301,189.004307 385.995175,189.004307 C384.89105,189.004307 383.995979,188.109262 383.995979,187.005169 C383.995979,185.901075 384.89105,185.00603 385.995175,185.00603 C386.162431,185.00603 386.324889,185.026569 386.480166,185.065261 L388.807201,175.757389 L388.807187,175.757386 C388.941084,175.221814 389.483808,174.896189 390.019395,175.030082 C390.02278,175.030928 390.026161,175.031792 390.029538,175.032674 C391.592556,175.440855 393.203813,176.47467 394.863309,178.134119 C396.523042,179.793805 397.557663,181.405956 397.96717,182.970573 L397.967184,182.970569 C398.106965,183.504636 397.787321,184.050894 397.253239,184.190671 C397.249693,184.191599 397.246141,184.192508 397.242585,184.193397 L387.935139,186.520192 Z M384.832951,180.189853 C385.377253,180.09761 385.893275,180.464064 385.98552,181.00835 C386.077765,181.552636 385.711301,182.068644 385.167,182.160886 C382.822428,182.558219 381.081421,184.599641 381.081421,187.005169 C381.081421,189.718882 383.281384,191.918782 385.995175,191.918782 C388.397231,191.918782 390.436661,190.182858 390.837981,187.842796 C390.931295,187.298692 391.448037,186.933253 391.992156,187.026564 C392.536275,187.119875 392.901725,187.636601 392.808411,188.180705 C392.243172,191.476566 389.374974,193.917921 385.995175,193.917921 C382.177258,193.917921 379.082225,190.822976 379.082225,187.005169 C379.082225,183.620481 381.530733,180.749477 384.832951,180.189853 Z" id="radar"></path>
        </g>
    </g>
</svg>