<?xml version="1.0" encoding="UTF-8"?>
<svg width="27px" height="27px" viewBox="0 0 27 27" version="1.1" xmlns="http://www.w3.org/2000/svg" xmlns:xlink="http://www.w3.org/1999/xlink">
    <!-- Generator: Sketch 45.1 (43504) - http://www.bohemiancoding.com/sketch -->
    <title>settings</title>
    <desc>Created with Sketch.</desc>
    <defs></defs>
    <g id="Page-1" stroke="none" stroke-width="1" fill="none" fill-rule="evenodd">
        <g id="settings" transform="translate(1.000000, 1.000000)" stroke="#000000" stroke-width="2">
            <circle id="Oval" stroke-linecap="round" stroke-linejoin="round" cx="12.5" cy="12.5" r="3.40909091"></circle>
            <path d="M20.9090909,15.9090909 C20.5996063,16.6103296 20.748107,17.4293333 21.2840909,17.9772727 L21.3522727,18.0454545 C21.7790387,18.471746 22.0188333,19.0502063 22.0188333,19.6534091 C22.0188333,20.2566119 21.7790387,20.8350721 21.3522727,21.2613636 C20.9259812,21.6881296 20.347521,21.9279242 19.7443182,21.9279242 C19.1411153,21.9279242 18.5626551,21.6881296 18.1363636,21.2613636 L18.0681818,21.1931818 C17.5202423,20.6571979 16.7012387,20.5086972 16,20.8181818 C15.3131016,21.1125776 14.8666169,21.7867694 14.8636364,22.5340909 L14.8636364,22.7272727 C14.8636364,23.9824653 13.8461017,25 12.5909091,25 C11.3357165,25 10.3181818,23.9824653 10.3181818,22.7272727 L10.3181818,22.625 C10.300178,21.8553078 9.81349065,21.1748468 9.09090909,20.9090909 C8.38967038,20.5996063 7.57066674,20.748107 7.02272727,21.2840909 L6.95454545,21.3522727 C6.52825396,21.7790387 5.94979375,22.0188333 5.34659091,22.0188333 C4.74338807,22.0188333 4.16492786,21.7790387 3.73863636,21.3522727 C3.31187036,20.9259812 3.07207578,20.347521 3.07207578,19.7443182 C3.07207578,19.1411153 3.31187036,18.5626551 3.73863636,18.1363636 L3.80681818,18.0681818 C4.34280213,17.5202423 4.49130279,16.7012387 4.18181818,16 C3.8874224,15.3131016 3.21323059,14.8666169 2.46590909,14.8636364 L2.27272727,14.8636364 C1.01753466,14.8636364 2.52323415e-16,13.8461017 0,12.5909091 C-1.26161707e-16,11.3357165 1.01753466,10.3181818 2.27272727,10.3181818 L2.375,10.3181818 C3.14469225,10.300178 3.82515321,9.81349065 4.09090909,9.09090909 C4.4003937,8.38967038 4.25189304,7.57066674 3.71590909,7.02272727 L3.64772727,6.95454545 C3.22096127,6.52825396 2.98116669,5.94979375 2.98116669,5.34659091 C2.98116669,4.74338807 3.22096127,4.16492786 3.64772727,3.73863636 C4.07401877,3.31187036 4.65247898,3.07207578 5.25568182,3.07207578 C5.85888465,3.07207578 6.43734487,3.31187036 6.86363636,3.73863636 L6.93181818,3.80681818 C7.47975765,4.34280213 8.29876128,4.49130279 9,4.18181818 L9.09090909,4.18181818 C9.77780751,3.8874224 10.2242922,3.21323059 10.2272727,2.46590909 L10.2272727,2.27272727 C10.2272727,1.01753466 11.2448074,2.52323415e-16 12.5,0 C13.7551926,0 14.7727273,1.01753466 14.7727273,2.27272727 L14.7727273,2.375 C14.7757078,3.1223215 15.2221925,3.79651331 15.9090909,4.09090909 C16.6103296,4.4003937 17.4293333,4.25189304 17.9772727,3.71590909 L18.0454545,3.64772727 C18.471746,3.22096127 19.0502063,2.98116669 19.6534091,2.98116669 C20.2566119,2.98116669 20.8350721,3.22096127 21.2613636,3.64772727 C21.6881296,4.07401877 21.9279242,4.65247898 21.9279242,5.25568182 C21.9279242,5.85888465 21.6881296,6.43734487 21.2613636,6.86363636 L21.1931818,6.93181818 C20.6571979,7.47975765 20.5086972,8.29876128 20.8181818,9 L20.8181818,9.09090909 C21.1125776,9.77780751 21.7867694,10.2242922 22.5340909,10.2272727 L22.7272727,10.2272727 C23.9824653,10.2272727 25,11.2448074 25,12.5 C25,13.7551926 23.9824653,14.7727273 22.7272727,14.7727273 L22.625,14.7727273 C21.8776785,14.7757078 21.2034867,15.2221925 20.9090909,15.9090909 Z" id="Shape"></path>
        </g>
    </g>
</svg>