<?xml version="1.0" encoding="UTF-8"?>
<svg width="20px" height="20px" viewBox="0 0 20 20" version="1.1" xmlns="http://www.w3.org/2000/svg" xmlns:xlink="http://www.w3.org/1999/xlink">
    <!-- Generator: Sketch 47.1 (45422) - http://www.bohemiancoding.com/sketch -->
    <title>settings</title>
    <desc>Created with Sketch.</desc>
    <defs></defs>
    <g id="Page-1" stroke="none" stroke-width="1" fill="none" fill-rule="evenodd">
        <g id="Artboard-2" transform="translate(-1181.000000, -181.000000)" fill="#595959">
            <path d="M1185.06369,190.122638 C1185.02173,190.409018 1185,190.701972 1185,191 C1185,192.634479 1185.65356,194.116312 1186.7136,195.198425 L1188.5283,192.700699 C1188.20868,192.237069 1188.01614,191.679076 1188.00097,191.077018 L1185.06369,190.122638 Z M1185.68131,188.22039 L1188.61887,189.174862 C1188.96905,188.718692 1189.44736,188.366034 1190,188.170706 L1190,185.082958 C1188.1197,185.398412 1186.53595,186.588409 1185.68131,188.22039 Z M1188.33084,196.375082 C1189.13477,196.775065 1190.04112,197 1191,197 C1191.95888,197 1192.86523,196.775065 1193.66916,196.375082 L1191.85398,193.876705 C1191.58332,193.956932 1191.29669,194 1191,194 C1190.70331,194 1190.41668,193.956932 1190.14602,193.876705 L1188.33084,196.375082 Z M1195.2864,195.198425 C1196.34644,194.116312 1197,192.634479 1197,191 C1197,190.701972 1196.97827,190.409018 1196.93631,190.122638 L1193.99903,191.077018 C1193.98386,191.679076 1193.79132,192.237069 1193.4717,192.700699 L1195.2864,195.198425 Z M1196.31869,188.22039 C1195.46405,186.588409 1193.8803,185.398412 1192,185.082958 L1192,188.170706 C1192.55264,188.366034 1193.03095,188.718692 1193.38113,189.174862 L1196.31869,188.22039 Z M1190.80997,199.671395 L1189.73416,200.83306 C1189.53693,201.046031 1189.20688,201.056456 1188.99697,200.856345 C1188.94468,200.806492 1188.90309,200.746227 1188.8748,200.679319 L1188.25547,199.214391 C1188.19869,199.080106 1188.04538,199.017942 1187.91303,199.075543 C1187.90805,199.077707 1187.90315,199.080028 1187.89832,199.082502 L1186.4958,199.800788 C1186.23867,199.932473 1185.92501,199.827738 1185.79522,199.566855 C1185.76288,199.501862 1185.74412,199.430799 1185.74009,199.35811 L1185.65193,197.766609 C1185.64385,197.620722 1185.52074,197.509105 1185.37695,197.517304 C1185.37155,197.517612 1185.36615,197.51809 1185.36078,197.518739 L1183.80071,197.707012 C1183.5147,197.741528 1183.25526,197.534265 1183.22124,197.244076 C1183.21276,197.171782 1183.21908,197.098492 1183.2398,197.028789 L1183.69345,195.502675 C1183.73503,195.362782 1183.65697,195.215173 1183.51909,195.172982 C1183.51391,195.171396 1183.50868,195.169975 1183.50342,195.16872 L1181.97396,194.80427 C1181.69356,194.737455 1181.51964,194.452662 1181.58549,194.168169 C1181.6019,194.097294 1181.63254,194.030616 1181.67551,193.972308 L1182.61625,192.695652 C1182.70248,192.578625 1182.67889,192.41283 1182.56354,192.325336 C1182.55921,192.322049 1182.55478,192.3189 1182.55025,192.315892 L1181.23589,191.442678 C1180.99492,191.282589 1180.92749,190.954618 1181.08527,190.710134 C1181.12458,190.649226 1181.17586,190.597204 1181.23589,190.557322 L1182.55025,189.684108 C1182.67073,189.604064 1182.70445,189.440078 1182.62556,189.317836 C1182.62259,189.313243 1182.61949,189.308745 1182.61625,189.304348 L1181.67551,188.027692 C1181.50304,187.79364 1181.55023,187.462048 1181.78092,187.287061 C1181.83839,187.243467 1181.90411,187.212375 1181.97396,187.19573 L1183.50342,186.83128 C1183.64362,186.797872 1183.73058,186.655476 1183.69765,186.513229 C1183.69641,186.507885 1183.69501,186.502581 1183.69345,186.497325 L1183.2398,184.971211 C1183.15663,184.691424 1183.31276,184.396206 1183.58852,184.311824 C1183.65722,184.290802 1183.72945,184.28439 1183.80071,184.292988 L1185.36078,184.481261 C1185.50379,184.498519 1185.63351,184.394888 1185.65052,184.249793 C1185.65116,184.244342 1185.65163,184.238872 1185.65193,184.233391 L1185.74009,182.64189 C1185.75625,182.350116 1186.00248,182.12688 1186.29006,182.143279 C1186.3617,182.147364 1186.43174,182.166406 1186.4958,182.199212 L1187.89832,182.917498 C1188.02688,182.983341 1188.18371,182.930973 1188.24861,182.800532 C1188.25105,182.795631 1188.25333,182.790654 1188.25547,182.785609 L1188.8748,181.320681 C1188.98835,181.052112 1189.29498,180.927783 1189.55968,181.042985 C1189.62562,181.071685 1189.68502,181.113884 1189.73416,181.16694 L1190.80997,182.328605 C1190.90858,182.43509 1191.07361,182.440303 1191.17856,182.340247 C1191.1825,182.336488 1191.18633,182.332605 1191.19003,182.328605 L1192.26584,181.16694 C1192.46307,180.953969 1192.79312,180.943544 1193.00303,181.143655 C1193.05532,181.193508 1193.09691,181.253773 1193.1252,181.320681 L1193.74453,182.785609 C1193.80131,182.919894 1193.95462,182.982058 1194.08697,182.924457 C1194.09195,182.922293 1194.09685,182.919972 1194.10168,182.917498 L1195.5042,182.199212 C1195.76133,182.067527 1196.07499,182.172262 1196.20478,182.433145 C1196.23712,182.498138 1196.25588,182.569201 1196.25991,182.64189 L1196.34807,184.233391 C1196.35615,184.379278 1196.47926,184.490895 1196.62305,184.482696 C1196.62845,184.482388 1196.63385,184.48191 1196.63922,184.481261 L1198.19929,184.292988 C1198.4853,184.258472 1198.74474,184.465735 1198.77876,184.755924 C1198.78724,184.828218 1198.78092,184.901508 1198.7602,184.971211 L1198.30655,186.497325 C1198.26497,186.637218 1198.34303,186.784827 1198.48091,186.827018 C1198.48609,186.828604 1198.49132,186.830025 1198.49658,186.83128 L1200.02604,187.19573 C1200.30644,187.262545 1200.48036,187.547338 1200.41451,187.831831 C1200.3981,187.902706 1200.36746,187.969384 1200.32449,188.027692 L1199.38375,189.304348 C1199.29752,189.421375 1199.32111,189.58717 1199.43646,189.674664 C1199.44079,189.677951 1199.44522,189.6811 1199.44975,189.684108 L1200.76411,190.557322 C1201.00508,190.717411 1201.07251,191.045382 1200.91473,191.289866 C1200.87542,191.350774 1200.82414,191.402796 1200.76411,191.442678 L1199.44975,192.315892 C1199.32927,192.395936 1199.29555,192.559922 1199.37444,192.682164 C1199.37741,192.686757 1199.38051,192.691255 1199.38375,192.695652 L1200.32449,193.972308 C1200.49696,194.20636 1200.44977,194.537952 1200.21908,194.712939 C1200.16161,194.756533 1200.09589,194.787625 1200.02604,194.80427 L1198.49658,195.16872 C1198.35638,195.202128 1198.26942,195.344524 1198.30235,195.486771 C1198.30359,195.492115 1198.30499,195.497419 1198.30655,195.502675 L1198.7602,197.028789 C1198.84337,197.308576 1198.68724,197.603794 1198.41148,197.688176 C1198.34278,197.709198 1198.27055,197.71561 1198.19929,197.707012 L1196.63922,197.518739 C1196.49621,197.501481 1196.36649,197.605112 1196.34948,197.750207 C1196.34884,197.755658 1196.34837,197.761128 1196.34807,197.766609 L1196.25991,199.35811 C1196.24375,199.649884 1195.99752,199.87312 1195.70994,199.856721 C1195.6383,199.852636 1195.56826,199.833594 1195.5042,199.800788 L1194.10168,199.082502 C1193.97312,199.016659 1193.81629,199.069027 1193.75139,199.199468 C1193.74895,199.204369 1193.74667,199.209346 1193.74453,199.214391 L1193.1252,200.679319 C1193.01165,200.947888 1192.70502,201.072217 1192.44032,200.957015 C1192.37438,200.928315 1192.31498,200.886116 1192.26584,200.83306 L1191.19003,199.671395 C1191.09142,199.56491 1190.92639,199.559697 1190.82144,199.659753 C1190.8175,199.663512 1190.81367,199.667395 1190.80997,199.671395 Z M1191,192 C1191.55228,192 1192,191.552285 1192,191 C1192,190.447715 1191.55228,190 1191,190 C1190.44772,190 1190,190.447715 1190,191 C1190,191.552285 1190.44772,192 1191,192 Z" id="settings" transform="translate(1191.000000, 191.000000) rotate(90.000000) translate(-1191.000000, -191.000000) "></path>
        </g>
    </g>
</svg>