<?xml version="1.0" encoding="UTF-8"?>
<svg width="16px" height="20px" viewBox="0 0 16 20" version="1.1" xmlns="http://www.w3.org/2000/svg" xmlns:xlink="http://www.w3.org/1999/xlink">
    <!-- Generator: Sketch 47.1 (45422) - http://www.bohemiancoding.com/sketch -->
    <title>share</title>
    <desc>Created with Sketch.</desc>
    <defs></defs>
    <g id="Page-1" stroke="none" stroke-width="1" fill="none" fill-rule="evenodd">
        <g id="Artboard-2" transform="translate(-1041.000000, -177.000000)" fill-rule="nonzero" fill="#595959">
            <g id="Group-2" transform="translate(1041.000000, 177.000000)">
                <path d="M12,8 L13,8 C14.6568542,8 16,9.34314575 16,11 L16,17 C16,18.6568542 14.6568542,20 13,20 L3,20 C1.34314575,20 0,18.6568542 0,17 L0,11 C0,9.34314575 1.34314575,8 3,8 L4,8 C4.55228475,8 5,8.44771525 5,9 C5,9.55228475 4.55228475,10 4,10 L3,10 C2.44771525,10 2,10.4477153 2,11 L2,17 C2,17.5522847 2.44771525,18 3,18 L13,18 C13.5522847,18 14,17.5522847 14,17 L14,11 C14,10.4477153 13.5522847,10 13,10 L12,10 C11.4477153,10 11,9.55228475 11,9 C11,8.44771525 11.4477153,8 12,8 Z M9,3.41421356 L9,13.0415946 C9,13.5938793 8.55228475,14.0415946 8,14.0415946 C7.44771525,14.0415946 7,13.5938793 7,13.0415946 L7,3.41421356 L4.70710678,5.70710678 C4.31658249,6.09763107 3.68341751,6.09763107 3.29289322,5.70710678 C2.90236893,5.31658249 2.90236893,4.68341751 3.29289322,4.29289322 L7.29289321,0.292893223 C7.47385762,0.111928814 7.72385762,1.44950718e-12 8,1.44950718e-12 C8.27614238,1.44950718e-12 8.52614238,0.111928814 8.70710679,0.292893223 L12.7071068,4.29289322 C13.0976311,4.68341751 13.0976311,5.31658249 12.7071068,5.70710678 C12.3165825,6.09763107 11.6834175,6.09763107 11.2928932,5.70710678 L9,3.41421356 Z" id="share"></path>
            </g>
        </g>
    </g>
</svg>