<?xml version="1.0" encoding="UTF-8"?>
<svg width="27px" height="23px" viewBox="0 0 27 23" version="1.1" xmlns="http://www.w3.org/2000/svg" xmlns:xlink="http://www.w3.org/1999/xlink">
    <!-- Generator: Sketch 45.2 (43514) - http://www.bohemiancoding.com/sketch -->
    <title>Path</title>
    <desc>Created with Sketch.</desc>
    <defs></defs>
    <g id="Page-1" stroke="none" stroke-width="1" fill="none" fill-rule="evenodd">
        <path d="M21.0301049,10.894918 L21.0183916,10.8903128 C21.0224523,10.8919647 21.0263516,10.8934972 21.0301049,10.894918 Z M21.0549136,10.9033475 C21.0550805,10.9043003 21.0523975,10.9036143 21.0461641,10.9012318 L21.0301049,10.894918 C21.0391503,10.898342 21.047348,10.9011167 21.0549136,10.9033475 Z M19.9557795,9.22001662 C20.1062371,9.1866291 20.2784165,9.12786213 20.4684896,9.0418842 C20.6711467,8.94987913 20.8884545,8.91160607 21.1087104,8.91160607 C21.3321339,8.91160607 21.5613486,8.95259035 21.7539792,9.03053825 C22.3124249,9.22724254 22.7662601,9.64660185 22.7794893,10.2865899 C22.7919565,10.9725462 22.2694593,11.4925704 21.3172011,11.8555797 C21.2233336,11.8915275 21.1502586,11.9149287 20.9651032,11.9713555 C20.7230856,12.045628 20.6105374,12.082968 20.4827203,12.1345504 C20.2267303,12.2378587 20.1015147,12.3318534 20.0813785,12.3776197 C20.0712455,12.4006944 20.0790889,12.4777887 20.1956227,12.7092313 C20.3688484,13.0989313 20.7094592,13.6662628 21.2205762,14.240952 C22.0252392,15.1456983 22.9993357,15.7531621 24.1570608,15.9372805 L25.0538513,16.0799013 L24.9981145,16.9862496 C24.9895095,17.1261763 24.9547502,17.2628309 24.901876,17.3777973 C24.6064444,18.0479371 23.7101685,18.4809584 21.9288753,18.779238 C21.9206045,18.8141954 21.9113236,18.8544004 21.9008871,18.9005771 C21.849182,19.1297847 21.8142935,19.2697878 21.7641802,19.4340935 C21.6201124,19.9062687 21.2264495,20.1928444 20.7371388,20.1928444 L20.7120555,20.1928444 C20.5439785,20.1928444 20.3488942,20.1681677 20.1188699,20.124712 C19.7213875,20.0496849 19.4221132,20.0141968 19.0496436,20.0141968 C18.8057171,20.0141968 18.55186,20.0348443 18.2969163,20.0756693 C18.0057095,20.1224702 17.7162532,20.2583331 17.2744566,20.5483139 C17.1854937,20.6067062 17.1135808,20.6552871 16.9439,20.7709764 C15.6370977,21.663043 14.8894077,22 13.635382,22 C13.5851552,22 13.5353298,21.9989457 13.4808459,21.9968777 C13.4421763,21.9989779 13.4033928,22 13.3642791,22 C12.1105202,22 11.3624582,21.6629428 10.0559608,20.7712628 C9.88837124,20.6568999 9.81580132,20.6078362 9.72730502,20.5496903 C9.28455337,20.2587835 8.99462025,20.1225438 8.70364154,20.0757697 C8.44788884,20.034833 8.19421302,20.0141968 7.9502886,20.0141968 C7.59129444,20.0141968 7.33392549,20.0471619 6.88196169,20.1325124 C6.56906473,20.1918926 6.45923006,20.2090078 6.28787673,20.2090078 C5.79594751,20.2090078 5.38813455,19.9458418 5.23547204,19.4416424 C5.18614398,19.2795493 5.15700355,19.1609629 5.09917642,18.9053464 C5.08846131,18.857978 5.07896049,18.8168635 5.07051365,18.78122 C3.29058265,18.4829715 2.39478993,18.0499546 2.10250544,17.3890699 C2.04316308,17.2583957 2.00863263,17.1190838 2.00131489,16.9765265 L1.95523595,16.0788607 L2.84292619,15.9376752 C4.0005684,15.7535544 4.9746088,15.1461319 5.77918139,14.2414731 C6.29030156,13.6667713 6.63232199,13.0969994 6.82716191,12.6610903 C6.92069462,12.4777946 6.92851926,12.4010448 6.91853076,12.3783342 C6.89812762,12.3319076 6.77289366,12.2378517 6.51687534,12.1344953 C6.38906921,12.0828991 6.27610616,12.0454115 6.03778067,11.9722769 C5.85997349,11.9183234 5.77738283,11.8918469 5.68404956,11.8561352 C4.69167458,11.4778624 4.07394602,10.9335615 4.24245716,10.0818154 C4.38595875,9.35472855 5.14466717,8.92495557 5.84213992,8.92495557 C6.03623735,8.92495557 6.22747792,8.95889119 6.40825131,9.0410806 C6.65448741,9.15229218 6.86931032,9.21788232 7.04550026,9.24258662 C7.04078494,9.17031913 7.04060593,9.16756073 7.0354958,9.08881978 C7.00229068,8.57579294 6.98377247,8.24032591 6.97178734,7.8875211 C6.92377956,6.4743223 7.01687218,5.4671194 7.37365574,4.69482524 C8.62227831,1.99217622 10.9429987,1.00379545 13.2789281,1.00379545 C13.3240954,1.00343109 13.3240954,1.00343109 13.4609461,1.00218035 L13.4691151,1.0021045 C13.6075882,1.00080567 13.6075882,1.00080567 13.6456462,1.00046807 C13.681021,1.00003305 13.681021,1.00003305 13.7117843,1 L13.7118636,1 C16.0540706,1.00018573 18.3743208,1.98342691 19.6264109,4.69299048 C20.0895212,5.69538744 20.1145691,6.77828762 19.9557795,9.22001662 Z" id="Path" stroke="#000000" stroke-width="2"></path>
    </g>
</svg>