<?xml version="1.0" encoding="UTF-8"?>
<svg width="20px" height="20px" viewBox="0 0 20 20" version="1.1" xmlns="http://www.w3.org/2000/svg" xmlns:xlink="http://www.w3.org/1999/xlink">
    <!-- Generator: Sketch 47.1 (45422) - http://www.bohemiancoding.com/sketch -->
    <title>star</title>
    <desc>Created with Sketch.</desc>
    <defs></defs>
    <g id="Page-1" stroke="none" stroke-width="1" fill="none" fill-rule="evenodd">
        <g id="Artboard-2" transform="translate(-949.000000, -177.000000)" fill="#595959">
            <path d="M958.457875,194.437251 L954.094659,196.859357 C953.553104,197.159985 952.871404,196.962821 952.57204,196.418981 C952.450455,196.198104 952.406349,195.942592 952.446809,195.693507 L953.306795,190.399114 C953.364046,190.046657 953.251281,189.687835 953.002937,189.432228 L949.318473,185.640001 C948.886341,185.195229 948.895071,184.482879 949.337974,184.048923 C949.505454,183.884826 949.719892,183.777503 949.951198,183.742013 L954.946639,182.975556 C955.315992,182.918886 955.632909,182.68105 955.791667,182.341388 L957.985673,177.647342 C958.248595,177.084823 958.91583,176.842852 959.475985,177.106884 C959.712684,177.218453 959.903071,177.409644 960.014171,177.647342 L962.208177,182.341388 C962.366936,182.68105 962.683853,182.918886 963.053206,182.975556 L968.048646,183.742013 C968.660338,183.835866 969.080449,184.409915 968.986991,185.024188 C968.95165,185.256471 968.844779,185.471814 968.681371,185.640001 L964.996907,189.432228 C964.748563,189.687835 964.635798,190.046657 964.693049,190.399114 L965.553036,195.693507 C965.652655,196.306803 965.238328,196.885076 964.627609,196.985116 C964.379571,197.025747 964.125133,196.981454 963.905185,196.859357 L959.541969,194.437251 C959.204658,194.250003 958.795187,194.250003 958.457875,194.437251 Z" id="star"></path>
        </g>
    </g>
</svg>