<?xml version="1.0" encoding="UTF-8"?>
<svg width="20px" height="20px" viewBox="0 0 20 20" version="1.1" xmlns="http://www.w3.org/2000/svg" xmlns:xlink="http://www.w3.org/1999/xlink">
    <!-- Generator: Sketch 47.1 (45422) - http://www.bohemiancoding.com/sketch -->
    <title>telephone</title>
    <desc>Created with Sketch.</desc>
    <defs></defs>
    <g id="Page-1" stroke="none" stroke-width="1" fill="none" fill-rule="evenodd">
        <g id="Artboard-2" transform="translate(-306.000000, -322.000000)" fill="#595959">
            <path d="M321.894524,341.741908 C318.637887,339.786403 315.706534,337.505614 313.100463,334.899543 C310.494395,332.293473 308.213609,329.362121 306.258106,326.105486 C305.776641,325.303691 305.986216,324.267043 306.741324,323.715233 L308.611972,322.34822 C309.331467,321.822436 310.326787,321.899387 310.956915,322.529515 L313.5396,325.112201 C314.169727,325.742329 314.246678,326.73765 313.720894,327.457145 L312.475512,329.161352 C313.109932,330.647979 313.957404,331.921554 315.017927,332.982078 C316.07845,334.042602 317.352025,334.890074 318.838651,335.524494 L320.542858,334.279112 C321.262353,333.753327 322.257673,333.830278 322.8878,334.460406 L325.470485,337.043092 C326.100613,337.67322 326.177564,338.668541 325.65178,339.388036 L324.284756,341.2587 C323.73294,342.013784 322.696311,342.223355 321.894524,341.741908 Z" id="telephone"></path>
        </g>
    </g>
</svg>