<?xml version="1.0" encoding="UTF-8"?>
<svg width="36px" height="22px" viewBox="0 0 36 22" version="1.1" xmlns="http://www.w3.org/2000/svg" xmlns:xlink="http://www.w3.org/1999/xlink">
    <!-- Generator: Sketch 46.2 (44496) - http://www.bohemiancoding.com/sketch -->
    <title>Group 24</title>
    <desc>Created with Sketch.</desc>
    <defs></defs>
    <g id="Page-1" stroke="none" stroke-width="1" fill="none" fill-rule="evenodd" stroke-linecap="round" stroke-linejoin="round">
        <g id="Group-24" transform="translate(1.000000, 1.000000)" stroke-width="2" stroke="#000000">
            <g id="Group-23-Copy">
                <path d="M17,20 L17,17.6666667 C17,15.0893378 14.9703575,13 12.4666667,13 L4.53333333,13 C2.02964247,13 2.51650552e-16,15.0893378 0,17.6666667 L0,20" id="Shape"></path>
                <circle id="Oval" cx="8.5" cy="4.5" r="4.5"></circle>
                <path d="M24.5775128,20 L24.5775128,17.6149915 C24.5758913,15.4411966 23.1047686,13.5434483 21,13" id="Shape"></path>
                <g id="Group-21" transform="translate(16.000000, 0.000000)">
                    <path d="M0.666666667,0.144444444 C2.6332387,0.647966431 4.00871473,2.41999016 4.00871473,4.45 C4.00871473,6.48000984 2.6332387,8.25203357 0.666666667,8.75555556" id="Shape"></path>
                </g>
            </g>
            <g id="Group-19" transform="translate(26.000000, 3.000000)">
                <path d="M4,0 L4,8" id="Shape"></path>
                <path d="M8,4 L0,4" id="Shape"></path>
            </g>
        </g>
    </g>
</svg>