<?xml version="1.0" encoding="UTF-8"?>
<svg width="24px" height="24px" viewBox="0 0 24 24" version="1.1" xmlns="http://www.w3.org/2000/svg" xmlns:xlink="http://www.w3.org/1999/xlink">
    <!-- Generator: Sketch 47.1 (45422) - http://www.bohemiancoding.com/sketch -->
    <title>world</title>
    <desc>Created with Sketch.</desc>
    <defs></defs>
    <g id="Page-1" stroke="none" stroke-width="1" fill="none" fill-rule="evenodd">
        <g id="Artboard-2" transform="translate(-984.000000, -320.000000)" fill-rule="nonzero" fill="#595959">
            <g id="world" transform="translate(984.000000, 320.000000)">
                <path d="M12,24 C5.372583,24 0,18.627417 0,12 C0,5.372583 5.372583,0 12,0 C18.627417,0 24,5.372583 24,12 C24,18.627417 18.627417,24 12,24 Z M12,22 C17.5228475,22 22,17.5228475 22,12 C22,6.4771525 17.5228475,2 12,2 C6.4771525,2 2,6.4771525 2,12 C2,17.5228475 6.4771525,22 12,22 Z" id="Oval-3"></path>
                <path d="M11.5151383,0.92499372 L11.8991304,1 C15.4363608,2.58798702 17.844821,6.91752389 17.9968214,11.8726633 C19.8274111,11.1032127 21.1780868,9.99706146 21.7322043,8.73582048 L23.5632775,9.54028979 C22.6944674,11.5178106 20.6181685,13.1016067 17.9178299,14.0438482 C17.4875132,18.1691557 15.4839226,21.7301727 12.5782857,23.3959784 L11.4012593,23.0104172 C8.6000794,21.3910466 6.64259612,18.0084371 6.1319976,14.0610909 C3.77797531,13.2489988 1.88832628,11.9494415 0.852968946,10.3182899 C0.668734145,10.0280376 0.512772625,9.72898133 0.386582627,9.42244305 L2.23600603,8.66110669 C2.31704421,8.85796303 2.41895334,9.05337381 2.54153252,9.24649092 C3.21110288,10.3013642 4.43201123,11.2118681 6.00050359,11.8718619 C6.03832989,7.06071758 8.2041779,2.76690463 11.5151383,0.92499372 Z M12,13 C13.4191858,13 14.7743849,12.8303873 16.0036133,12.5267127 C16.0041759,12.4749623 16.0044582,12.4231299 16.0044582,12.3712187 C16.0044582,8.28537462 14.2567019,4.7098367 11.7313982,3.16860071 C9.49057957,4.87378002 8,8.22754261 8,12 C8,12.1777288 8.00330848,12.3545349 8.00984854,12.5302893 C9.23824844,12.8323947 10.5894825,13 12,13 Z M8.24850924,14.6329764 C8.81322737,17.5638995 10.2986561,19.99526 12.273348,21.2022929 C14.0578496,19.8440921 15.3650555,17.4424618 15.8244979,14.6182106 C14.6160912,14.8671817 13.3281805,15 12,15 C10.7001471,15 9.43704658,14.8726205 8.24850924,14.6329764 Z" id="Combined-Shape"></path>
            </g>
        </g>
    </g>
</svg>